<svg xmlns="http://www.w3.org/2000/svg" viewBox="0 0 837 667">
  <g transform="translate(0,667) scale(0.1,-0.1)" fill="#000000">
    <path d="M2440 6409 c-91 -4 -179 -11 -197 -17 -17 -6 -67 -13 -110 -17 -43
-4 -105 -13 -138 -21 -33 -7 -85 -18 -115 -23 -30 -5 -73 -14 -95 -20 -22 -6
-60 -11 -84 -11 -25 0 -52 -6 -60 -14 -17 -15 -132 -56 -156 -56 -8 0 -15 -4
-15 -9 0 -5 -20 -14 -44 -20 -24 -6 -49 -17 -56 -26 -7 -8 -19 -15 -26 -15 -8
0 -14 -4 -14 -9 0 -5 -13 -14 -30 -21 -16 -7 -30 -18 -30 -25 0 -8 -10 -22
-22 -32 -13 -10 -30 -31 -38 -47 -8 -16 -22 -31 -30 -33 -17 -4 -55 -81 -45
-91 3 -3 5 0 5 7 0 6 11 16 25 21 14 5 25 13 25 17 0 5 14 14 30 21 17 8 43
27 59 43 16 16 39 29 50 29 12 0 21 4 21 8 0 11 99 52 125 52 11 1 38 9 60 20
22 11 54 19 70 20 17 0 39 6 50 14 11 7 44 15 74 18 29 3 56 10 60 17 4 6 49
14 107 17 54 4 108 12 119 19 11 7 77 15 153 19 73 4 145 12 160 19 37 16 572
15 627 -1 22 -6 81 -14 130 -18 50 -3 103 -13 119 -20 16 -8 41 -14 55 -14 14
-1 44 -9 66 -20 22 -11 50 -19 61 -20 12 0 27 -6 33 -14 7 -8 27 -17 45 -20
19 -4 36 -13 39 -20 3 -7 19 -16 35 -19 16 -3 50 -26 76 -51 26 -26 50 -46 54
-46 4 -1 25 -19 47 -40 22 -22 43 -40 48 -40 9 0 197 -185 197 -194 0 -2 16
-22 35 -43 19 -21 38 -46 41 -55 3 -10 10 -18 15 -18 5 0 9 -6 9 -14 0 -7 16
-33 35 -57 19 -24 35 -48 35 -52 0 -5 16 -27 35 -50 19 -22 35 -48 35 -57 0
-9 9 -25 20 -35 11 -10 20 -26 20 -35 0 -9 9 -27 20 -40 11 -13 20 -29 20 -35
0 -7 7 -18 15 -25 8 -7 15 -20 15 -30 0 -10 6 -20 14 -23 8 -3 17 -20 21 -37
4 -17 13 -34 21 -37 8 -3 14 -12 14 -19 0 -8 16 -44 35 -80 19 -35 35 -73 35
-84 0 -10 7 -26 17 -35 9 -9 18 -39 21 -68 3 -29 11 -56 18 -60 9 -5 14 -25
14 -52 0 -28 5 -47 15 -52 10 -6 16 -36 21 -108 4 -55 12 -103 18 -107 7 -5
12 -87 14 -246 3 -200 1 -246 -12 -277 -9 -21 -19 -62 -22 -91 -4 -30 -10 -54
-15 -54 -4 0 -11 -17 -14 -37 -3 -21 -12 -51 -20 -68 -7 -16 -17 -45 -20 -62
-4 -18 -10 -33 -15 -33 -4 0 -11 -18 -15 -41 -4 -22 -13 -43 -21 -46 -8 -3
-14 -12 -14 -20 0 -19 -49 -103 -60 -103 -5 0 -12 -10 -16 -22 -3 -12 -10 -26
-15 -32 -34 -43 -57 -75 -69 -100 -8 -16 -23 -31 -32 -34 -10 -2 -18 -11 -18
-19 0 -17 -109 -123 -126 -123 -6 0 -14 -9 -17 -20 -3 -11 -12 -20 -21 -20 -9
0 -16 -7 -16 -15 0 -8 -6 -15 -12 -15 -7 0 -29 -15 -49 -33 -59 -52 -79 -67
-90 -67 -6 0 -22 -9 -36 -20 -14 -11 -32 -20 -39 -20 -7 0 -19 -6 -26 -13 -20
-19 -90 -54 -125 -61 -17 -4 -34 -14 -37 -22 -3 -8 -13 -14 -23 -14 -10 0 -27
-7 -37 -15 -11 -8 -26 -15 -34 -15 -8 0 -28 -7 -45 -15 -63 -29 -243 -88 -292
-96 -121 -20 -184 -31 -238 -45 -32 -8 -93 -17 -135 -21 -42 -3 -86 -12 -97
-19 -13 -9 -52 -14 -115 -14 -52 0 -140 -7 -195 -15 -115 -17 -341 -19 -400
-4 -22 5 -102 13 -178 17 -79 5 -141 12 -145 19 -4 5 -34 13 -67 17 -33 4 -73
13 -90 20 -16 8 -57 22 -90 32 -33 10 -71 26 -84 36 -13 10 -31 18 -41 18 -9
0 -25 9 -35 20 -10 11 -24 20 -32 20 -7 0 -13 5 -13 10 0 6 -8 14 -17 18 -35
15 -93 54 -93 63 0 5 -7 9 -16 9 -17 0 -76 38 -83 53 -6 15 -72 74 -120 107
-11 8 -21 21 -21 29 0 7 -10 23 -22 35 -43 40 -109 121 -125 151 -9 17 -19 32
-22 35 -6 5 -33 44 -56 82 -32 52 -95 183 -95 197 0 9 -9 33 -19 52 -14 27
-22 67 -26 145 -7 113 9 370 25 389 5 5 12 39 15 75 4 36 13 75 21 87 7 12 17
41 20 65 4 24 10 45 13 48 7 6 51 112 51 123 0 5 7 15 15 24 9 8 19 28 22 44
3 16 12 34 19 40 8 6 14 18 14 25 0 8 9 31 20 51 11 21 20 48 20 60 0 13 5 23
10 23 6 0 10 6 10 13 0 7 11 28 25 47 14 19 25 44 25 56 0 12 9 33 20 47 11
14 20 30 20 36 0 6 4 11 9 11 5 0 12 14 16 30 4 17 11 30 16 30 5 0 14 11 19
25 5 14 14 25 20 25 5 0 12 11 16 24 3 14 12 27 20 30 8 3 14 10 14 15 0 5 24
34 53 64 28 31 65 74 81 96 17 23 33 41 38 41 4 0 8 5 8 10 0 6 13 24 30 40
16 16 30 32 30 36 0 4 9 16 20 28 78 80 130 142 130 153 0 7 5 13 11 13 11 0
59 45 59 55 0 3 15 20 33 39 17 19 47 53 66 75 19 23 41 41 49 41 8 0 32 16
53 35 22 19 47 35 57 35 9 0 23 9 30 20 7 11 19 20 28 20 8 0 36 16 61 35 25
19 54 35 64 35 11 0 19 6 19 14 0 16 83 31 136 24 21 -2 30 2 32 15 12 63
-208 134 -289 93 -17 -9 -45 -16 -61 -16 -16 0 -31 -6 -34 -15 -3 -8 -21 -17
-40 -21 -19 -3 -34 -10 -34 -14 0 -4 -13 -13 -30 -19 -16 -5 -30 -15 -30 -20
0 -6 -7 -11 -15 -11 -9 0 -18 -6 -21 -14 -3 -8 -17 -17 -30 -20 -14 -4 -47
-29 -73 -56 -27 -28 -53 -50 -59 -50 -6 0 -13 -8 -16 -18 -3 -10 -19 -25 -35
-35 -17 -10 -33 -27 -36 -38 -9 -28 -36 -59 -52 -59 -7 0 -13 -5 -13 -12 0
-13 -48 -58 -62 -58 -4 0 -8 -7 -8 -14 0 -8 -16 -27 -35 -42 -19 -14 -35 -32
-35 -38 0 -14 -22 -43 -67 -92 -18 -19 -33 -38 -33 -42 0 -4 -25 -34 -55 -67
-30 -32 -55 -64 -55 -70 0 -6 -16 -25 -35 -41 -19 -16 -35 -35 -35 -42 0 -7
-9 -20 -20 -29 -11 -10 -20 -22 -20 -27 0 -5 -11 -23 -24 -41 -26 -34 -51 -77
-94 -159 -14 -28 -32 -55 -39 -59 -7 -4 -13 -21 -13 -38 0 -17 -6 -32 -15 -35
-8 -4 -15 -11 -15 -16 0 -11 -28 -74 -61 -139 -11 -20 -19 -43 -19 -52 0 -8
-6 -20 -14 -26 -8 -7 -17 -27 -20 -46 -4 -19 -11 -35 -16 -35 -5 0 -12 -16
-16 -35 -3 -19 -10 -35 -14 -35 -4 0 -11 -12 -15 -27 -3 -16 -12 -35 -20 -43
-7 -8 -16 -33 -20 -54 -3 -22 -13 -49 -21 -60 -8 -11 -14 -36 -14 -56 0 -19
-7 -47 -15 -63 -8 -15 -17 -55 -20 -90 -4 -34 -13 -92 -21 -129 -8 -37 -14
-103 -14 -147 0 -77 31 -258 50 -293 5 -9 13 -36 16 -60 4 -24 12 -50 19 -58
7 -8 16 -30 20 -47 3 -18 11 -35 16 -38 5 -4 18 -28 30 -55 11 -27 29 -56 40
-66 10 -9 19 -23 19 -30 0 -7 6 -19 13 -26 26 -27 57 -77 57 -92 0 -9 16 -31
35 -49 19 -17 35 -35 35 -40 0 -4 13 -21 30 -37 16 -16 30 -34 30 -39 0 -5 18
-24 40 -41 22 -17 40 -38 40 -46 0 -8 5 -14 11 -14 7 0 21 -9 33 -20 39 -38
79 -70 87 -70 5 0 9 -7 9 -15 0 -8 5 -15 10 -15 6 0 24 -13 40 -30 16 -16 41
-32 55 -36 15 -4 29 -13 32 -20 3 -8 9 -14 14 -14 4 0 21 -12 36 -26 15 -15
42 -33 58 -41 59 -28 90 -44 105 -54 8 -5 26 -15 40 -21 14 -7 27 -15 30 -19
3 -3 26 -9 53 -13 26 -4 47 -11 47 -16 0 -5 17 -12 38 -16 20 -4 48 -12 62
-17 14 -6 61 -16 105 -23 44 -7 103 -17 130 -23 28 -5 152 -17 277 -26 176
-13 245 -14 305 -5 43 5 139 14 215 19 75 5 144 14 155 19 10 5 67 12 128 16
60 4 115 11 121 17 7 6 38 13 69 16 52 5 58 4 85 -22 24 -23 30 -37 30 -70 0
-22 9 -66 20 -98 11 -31 20 -65 20 -76 0 -10 7 -35 15 -55 8 -20 19 -62 24
-94 5 -31 19 -93 30 -137 12 -44 26 -104 31 -134 5 -30 14 -57 20 -61 5 -3 13
-37 16 -75 3 -39 12 -82 20 -97 9 -17 14 -60 14 -119 0 -50 6 -117 14 -148 8
-31 18 -83 22 -116 4 -33 13 -69 20 -80 8 -11 14 -45 14 -77 0 -33 5 -62 13
-70 14 -14 21 -35 73 -233 35 -132 48 -160 93 -207 21 -22 35 -27 74 -28 44 0
52 4 89 42 l40 42 -6 68 c-7 78 -29 177 -55 251 -25 72 -39 124 -46 175 -3 24
-12 53 -19 65 -8 12 -17 59 -21 104 -6 80 -6 83 17 92 56 20 587 31 854 17
112 -6 171 -6 193 2 17 6 100 14 184 18 101 5 159 11 172 20 11 8 35 14 55 14
19 1 53 9 75 20 22 11 53 19 69 20 16 0 34 7 40 15 6 8 31 19 56 24 49 10 106
29 130 42 8 5 25 13 37 18 11 6 24 15 28 20 3 6 16 11 29 11 12 0 32 9 44 20
12 11 35 23 51 26 16 4 32 12 35 20 3 8 10 14 16 14 5 0 32 16 59 35 26 19 53
35 60 35 6 0 11 7 11 15 0 8 5 15 10 15 6 0 19 9 30 20 11 11 29 20 40 20 11
0 20 5 20 11 0 14 47 59 61 59 5 0 9 7 9 15 0 8 6 15 13 15 10 0 30 20 113
111 8 9 14 21 14 27 0 7 7 12 15 12 8 0 15 4 15 9 0 5 9 13 20 16 11 3 20 14
20 24 0 10 15 32 33 50 62 62 77 78 77 86 0 4 23 29 50 55 28 26 50 52 50 59
0 6 6 11 14 11 8 0 17 12 20 26 4 14 22 41 41 59 19 18 35 37 35 43 0 6 3 12
8 14 16 7 62 85 62 106 0 11 6 25 13 29 26 17 46 72 53 149 5 55 13 87 27 107
l21 27 135 0 c96 0 144 4 163 14 14 8 50 17 78 21 28 4 64 13 78 21 15 8 33
14 40 14 7 0 20 7 28 15 8 8 31 17 52 21 20 4 39 10 42 13 6 7 41 28 83 49 15
7 27 17 27 22 0 4 13 13 30 20 17 7 30 19 30 26 0 8 4 14 9 14 13 0 64 49 82
80 28 46 79 182 79 212 0 44 -26 88 -53 88 -30 0 -67 -42 -67 -76 -1 -16 -9
-47 -20 -69 -11 -22 -19 -46 -20 -53 0 -7 -7 -15 -15 -18 -8 -4 -15 -13 -15
-20 0 -8 -8 -18 -17 -21 -10 -4 -29 -19 -44 -34 -14 -15 -40 -30 -58 -34 -17
-3 -31 -10 -31 -15 0 -5 -17 -14 -37 -20 -21 -6 -47 -15 -58 -20 -11 -5 -40
-11 -64 -15 -24 -3 -57 -13 -73 -21 -25 -13 -58 -15 -172 -12 -138 4 -198 15
-276 53 -14 7 -37 15 -52 19 -16 3 -28 10 -28 15 0 5 -14 12 -31 16 -17 4 -42
13 -57 21 -15 8 -35 14 -44 14 -10 0 -18 6 -18 14 0 8 -12 17 -27 21 -53 13
-223 158 -223 190 0 9 -7 18 -15 21 -8 4 -15 14 -15 24 0 10 -6 25 -14 32 -18
18 -60 109 -82 176 -14 45 -16 79 -12 203 3 82 10 155 16 162 5 6 13 40 17 74
4 34 13 67 21 74 8 6 14 18 14 26 0 16 50 106 62 111 4 2 8 9 8 16 0 7 19 30
41 51 33 30 51 39 90 43 82 8 133 -5 172 -43 20 -19 41 -35 47 -35 5 0 10 -7
10 -15 0 -8 4 -15 9 -15 4 0 25 -25 45 -55 20 -30 41 -55 46 -55 6 0 10 -8 10
-17 1 -10 14 -40 30 -68 33 -55 60 -110 84 -170 37 -90 38 -275 2 -311 -9 -8
-16 -20 -16 -25 0 -5 -6 -9 -14 -9 -8 0 -16 -7 -20 -15 -9 -24 -108 -20 -131
5 -10 11 -22 20 -27 20 -16 0 -58 52 -58 72 0 10 -6 21 -14 24 -8 3 -16 18
-20 35 -7 37 -35 39 -71 5 -24 -23 -26 -31 -27 -108 -1 -81 1 -85 31 -118 17
-19 34 -45 37 -57 4 -14 14 -23 25 -23 10 0 28 -9 39 -20 11 -11 30 -20 43
-20 12 0 35 -7 51 -15 36 -19 105 -19 130 0 11 8 33 15 49 15 28 0 51 16 101
67 52 54 75 84 81 105 4 13 13 38 22 57 18 40 16 287 -3 299 -6 4 -14 33 -18
64 -4 31 -13 62 -21 68 -17 14 -28 63 -20 90 7 23 43 27 51 5 4 -8 17 -15 30
-15 13 0 33 -9 44 -20 17 -17 33 -20 108 -20 76 0 91 3 107 20 10 11 22 20 27
20 11 0 51 40 63 65 6 11 23 24 38 29 22 8 30 6 47 -12 11 -11 20 -24 20 -28
0 -25 119 -94 161 -94 13 0 38 9 54 20 45 30 87 26 113 -10 24 -31 28 -50 12
-50 -5 0 -10 -13 -10 -30 0 -34 -24 -129 -39 -159 -6 -11 -11 -29 -11 -40 0
-10 -5 -21 -11 -23 -5 -2 -13 -23 -16 -47 -4 -26 -12 -45 -22 -49 -9 -3 -32
-20 -51 -39 -19 -18 -43 -33 -53 -33 -15 0 -18 -6 -15 -32 l3 -33 60 3 c58 2
95 23 95 52 0 5 5 10 12 10 17 0 68 61 68 82 0 10 7 21 15 24 11 5 15 21 15
61 0 30 5 63 10 74 6 10 13 49 16 87 3 37 10 79 16 95 10 27 17 30 88 42 26 4
41 15 58 40 12 19 26 35 31 35 5 0 12 13 16 30 4 16 13 34 21 38 32 18 2 181
-37 203 -11 5 -24 21 -29 34 -15 39 -63 55 -162 55 -85 0 -89 1 -98 25 -5 14
-14 25 -20 25 -5 0 -10 9 -10 19 0 24 -30 56 -86 94 -49 33 -100 35 -163 7
-24 -11 -56 -20 -72 -20 -24 0 -29 5 -35 36 -4 19 -13 38 -20 41 -8 3 -14 11
-14 17 0 7 -16 27 -35 45 -19 17 -35 38 -35 46 0 8 -8 15 -17 15 -9 0 -27 10
-39 21 -14 13 -41 23 -69 26 -25 3 -48 9 -50 13 -3 4 -22 2 -42 -6 -21 -7 -50
-13 -65 -14 -29 0 -108 -37 -108 -50 0 -11 -45 -21 -63 -14 -12 4 -13 32 -9
170 5 167 -6 254 -43 354 -7 20 -16 57 -20 83 -4 25 -13 52 -21 58 -8 6 -14
23 -14 38 0 14 -9 43 -20 64 -11 20 -20 47 -20 60 0 12 -12 40 -27 62 -27 39
-36 59 -63 135 -7 19 -16 42 -21 50 -5 8 -16 30 -25 48 -9 17 -20 32 -25 32
-5 0 -9 7 -9 15 0 8 -9 25 -20 38 -42 47 -50 57 -50 66 0 10 -72 61 -87 61 -6
0 -13 6 -16 14 -5 13 -68 25 -147 28 -53 2 -149 -19 -166 -37 -8 -8 -19 -15
-23 -15 -4 0 -26 -17 -49 -37 -45 -42 -86 -110 -97 -163 -4 -19 -13 -48 -20
-65 -7 -16 -16 -65 -20 -107 -4 -43 -11 -80 -16 -84 -12 -7 -12 -191 1 -199 6
-3 10 -34 10 -68 1 -34 8 -89 16 -122 8 -33 20 -78 25 -100 5 -22 13 -49 18
-60 5 -11 12 -37 15 -58 2 -21 12 -52 20 -69 9 -17 16 -37 16 -45 0 -7 9 -30
20 -50 11 -21 20 -50 20 -64 0 -15 7 -29 15 -33 8 -3 15 -17 15 -30 0 -14 6
-29 13 -33 13 -8 64 -90 88 -143 6 -14 18 -39 27 -56 l15 -31 -51 -50 c-29
-27 -52 -54 -52 -60 0 -6 -7 -17 -16 -24 -9 -7 -20 -22 -25 -34 -5 -11 -20
-38 -34 -60 -13 -22 -27 -47 -30 -55 -4 -8 -13 -28 -20 -45 -8 -16 -17 -43
-21 -60 -3 -16 -12 -48 -19 -70 -23 -73 -39 -312 -26 -392 6 -39 11 -88 11
-108 0 -24 12 -58 35 -96 19 -33 35 -68 35 -78 0 -10 7 -24 15 -31 8 -7 15
-17 15 -23 0 -12 45 -82 73 -112 10 -11 25 -31 32 -45 7 -14 25 -32 38 -39 14
-8 31 -26 37 -41 7 -16 22 -31 37 -34 13 -4 37 -20 53 -36 16 -17 34 -30 40
-30 6 0 20 -9 32 -20 12 -11 29 -20 39 -20 9 0 22 -6 28 -14 7 -8 25 -18 41
-21 22 -5 32 -15 40 -41 11 -33 6 -88 -10 -109 -4 -5 -11 -24 -14 -42 -4 -17
-14 -37 -22 -44 -8 -6 -14 -20 -14 -30 0 -11 -9 -27 -20 -36 -11 -10 -20 -22
-20 -28 0 -11 -118 -158 -131 -163 -5 -2 -9 -8 -9 -12 0 -5 -20 -31 -45 -57
-25 -26 -51 -60 -58 -75 -6 -16 -16 -28 -22 -28 -5 0 -23 -18 -38 -40 -16 -22
-33 -40 -38 -40 -5 0 -9 -7 -9 -15 0 -8 -6 -15 -14 -15 -8 0 -17 -9 -21 -19
-3 -11 -12 -22 -20 -25 -8 -3 -15 -12 -15 -19 0 -14 -138 -147 -152 -147 -4 0
-24 -16 -44 -35 -19 -19 -40 -35 -45 -35 -5 0 -17 -8 -27 -18 -10 -9 -38 -28
-62 -41 -25 -14 -51 -31 -58 -38 -7 -7 -24 -13 -37 -13 -12 0 -25 -6 -28 -14
-3 -7 -22 -16 -41 -20 -20 -4 -36 -11 -36 -16 0 -6 -5 -10 -11 -10 -6 0 -23
-9 -38 -19 -15 -11 -40 -23 -57 -27 -16 -4 -33 -10 -39 -14 -5 -4 -26 -10 -45
-14 -19 -3 -48 -12 -65 -20 -64 -29 -145 -45 -257 -50 -64 -4 -129 -11 -143
-16 -35 -13 -178 -13 -389 1 -134 9 -211 9 -356 -1 -189 -13 -357 -15 -391 -5
-26 8 -57 76 -65 139 -4 28 -12 58 -19 66 -7 8 -16 38 -20 65 -4 28 -14 59
-21 70 -8 11 -14 38 -14 60 0 23 -7 50 -15 61 -8 10 -15 30 -15 44 0 14 -16
49 -35 77 -19 29 -35 58 -35 66 0 7 -7 22 -15 33 -8 10 -15 28 -15 39 0 11 -9
35 -20 53 -20 32 -26 87 -12 108 4 6 23 15 42 19 19 4 44 13 56 20 12 8 38 17
59 21 21 4 50 13 64 20 14 8 32 14 39 14 6 0 29 9 49 20 21 11 43 20 50 20 7
0 13 4 13 10 0 5 18 14 40 20 22 6 40 15 40 20 0 4 14 11 31 15 17 4 33 13 36
21 3 8 16 14 30 14 14 0 36 9 50 20 14 11 32 20 39 20 7 0 17 6 21 13 10 15
39 34 76 48 15 6 27 15 27 20 0 5 6 9 14 9 8 0 24 11 37 25 13 13 29 25 35 25
7 0 14 7 18 15 3 8 12 15 21 15 8 0 15 7 15 15 0 8 6 15 14 15 8 0 38 24 68
54 30 29 59 55 65 57 16 6 91 97 98 119 3 11 13 20 21 20 8 0 14 7 14 15 0 7
6 18 13 22 12 8 28 33 55 86 7 15 17 27 22 27 5 0 11 13 15 29 3 16 13 32 21
35 8 3 14 15 14 27 0 11 9 32 20 46 11 14 20 32 20 39 0 8 4 14 10 14 5 0 13
12 16 28 4 15 12 34 19 42 12 14 20 42 49 155 7 28 18 60 24 70 5 11 15 49 21
85 6 36 16 90 22 120 14 75 8 508 -7 518 -7 4 -15 43 -19 87 -4 44 -12 85 -17
92 -5 6 -13 39 -19 74 -6 35 -14 66 -18 69 -4 3 -11 22 -14 44 -3 21 -13 46
-22 56 -8 9 -15 26 -15 38 0 11 -6 27 -12 34 -16 17 -58 104 -58 121 0 7 -9
20 -20 30 -11 9 -20 23 -20 31 0 8 -14 35 -30 59 -17 25 -30 48 -30 52 0 3
-11 21 -25 39 -14 18 -25 38 -25 44 0 7 -4 12 -9 12 -5 0 -12 14 -16 30 -4 17
-10 30 -15 30 -5 0 -29 43 -55 95 -25 52 -50 95 -54 95 -5 0 -12 11 -15 25 -4
14 -22 41 -41 61 -19 20 -35 42 -35 49 0 8 -6 18 -13 22 -7 4 -23 25 -35 45
-13 20 -26 38 -30 40 -4 2 -27 28 -52 58 -63 77 -139 150 -155 150 -8 0 -21
13 -30 29 -8 16 -24 32 -35 36 -11 3 -20 13 -20 21 0 8 -6 14 -13 14 -6 0 -25
16 -41 35 -16 19 -34 35 -40 35 -11 0 -61 42 -67 57 -2 4 -30 20 -61 36 -31
15 -60 32 -63 37 -3 6 -13 10 -21 10 -9 0 -22 7 -30 15 -9 8 -25 15 -37 15
-12 1 -40 9 -62 20 -22 11 -51 19 -66 20 -14 0 -29 4 -35 9 -24 24 -233 52
-424 57 -107 2 -217 6 -245 7 -27 1 -124 0 -215 -4z m3813 -572 c49 -33 87
-77 87 -99 0 -10 7 -21 15 -24 8 -3 17 -21 21 -40 3 -19 10 -34 15 -34 4 0 13
-19 19 -42 7 -22 18 -47 26 -55 8 -8 14 -25 14 -39 0 -14 7 -27 15 -30 8 -4
15 -18 15 -34 0 -15 6 -33 14 -39 7 -6 16 -30 20 -52 4 -23 13 -51 21 -62 8
-12 15 -35 15 -52 0 -17 8 -41 17 -54 9 -14 20 -47 24 -74 5 -28 13 -53 19
-57 6 -4 14 -33 17 -66 3 -32 10 -64 14 -70 5 -6 14 -46 19 -88 5 -42 14 -85
20 -96 5 -10 10 -29 10 -43 0 -13 13 -41 30 -63 29 -39 39 -87 20 -99 -15 -10
-12 -88 6 -123 8 -18 14 -46 12 -64 -3 -29 -7 -33 -35 -36 -24 -2 -33 1 -38
17 -3 12 -13 21 -21 21 -8 0 -14 4 -14 8 0 5 -31 30 -68 55 -49 34 -79 47
-104 47 -19 0 -43 7 -54 15 -14 10 -47 14 -121 15 l-102 0 -22 48 c-12 26 -23
70 -24 97 -2 28 -10 64 -19 80 -9 17 -16 47 -16 67 0 21 -6 52 -14 70 -8 18
-19 65 -24 103 -5 39 -14 88 -20 110 -29 118 -39 464 -18 585 13 71 51 179 66
185 8 3 26 12 40 20 35 21 64 19 103 -8z m902 -1139 c14 -6 25 -15 25 -20 0
-4 6 -8 14 -8 8 0 18 -9 21 -20 3 -11 11 -20 16 -20 6 0 15 -13 20 -29 6 -16
17 -32 25 -35 8 -3 14 -17 14 -31 0 -14 8 -32 19 -41 17 -15 18 -31 16 -178
-2 -148 -4 -164 -25 -200 -46 -76 -62 -86 -146 -86 -57 0 -76 4 -80 15 -4 8
-11 15 -17 15 -15 0 -57 41 -57 56 0 6 -6 14 -13 17 -7 3 -24 27 -38 53 -13
27 -30 53 -36 57 -7 4 -13 13 -13 19 0 6 -9 29 -19 52 -44 94 -51 116 -51 153
1 25 9 48 25 67 20 25 31 29 73 30 28 1 54 5 58 9 4 4 2 7 -4 7 -13 0 -36 66
-27 80 3 5 15 10 25 10 10 0 20 4 22 10 2 5 28 14 58 19 30 5 58 9 62 10 4 0
19 -4 33 -11z m494 -288 c10 -5 22 -25 25 -44 4 -19 13 -39 21 -46 11 -9 15
-35 15 -97 0 -96 -18 -149 -57 -164 -12 -4 -23 -13 -23 -19 0 -16 -27 -12 -34
5 -3 8 -12 15 -19 15 -8 0 -22 9 -33 21 -16 18 -19 35 -17 120 1 72 6 103 17
114 8 8 18 29 21 47 11 50 45 69 84 48z m345 -167 c5 -18 12 -33 17 -33 15 0
21 -82 8 -108 -27 -53 -59 -71 -121 -72 l-58 0 0 58 c0 45 4 63 19 76 15 13
18 26 14 51 -9 57 0 66 59 63 50 -3 53 -5 62 -35z"/>
    <path d="M3620 5669 c-19 -6 -39 -14 -45 -19 -5 -4 -26 -11 -45 -15 -19 -4
-57 -17 -85 -30 -27 -12 -66 -26 -85 -30 -19 -4 -45 -13 -57 -21 -12 -8 -35
-14 -50 -14 -15 0 -41 -7 -57 -15 -32 -17 -76 -20 -76 -6 0 5 -9 13 -20 16
-11 3 -20 12 -20 20 0 25 -82 36 -96 13 -14 -22 -7 -121 10 -133 8 -6 18 -23
21 -38 4 -15 13 -27 21 -27 8 0 14 -7 14 -14 0 -8 12 -21 28 -28 30 -15 33
-40 12 -118 -26 -97 6 -299 48 -300 6 0 12 -6 12 -13 0 -31 137 -167 169 -167
6 0 11 -7 11 -15 0 -10 10 -15 30 -15 17 0 33 -6 36 -14 3 -7 24 -17 47 -20
22 -4 47 -12 54 -17 7 -6 32 -11 56 -11 61 -1 220 33 230 49 4 7 15 13 22 13
8 0 15 7 15 15 0 8 6 15 13 15 15 1 87 93 87 113 0 8 6 20 14 26 8 7 17 31 21
54 4 23 14 61 22 85 17 45 12 157 -7 176 -6 6 -10 24 -10 41 0 17 -9 47 -20
68 -11 20 -20 42 -20 48 0 12 -34 52 -104 120 l-49 48 7 58 c6 57 6 59 -24 82
-37 27 -82 34 -130 20z m124 -257 c35 -19 76 -57 76 -72 0 -5 7 -13 15 -18 9
-4 19 -26 22 -47 4 -22 13 -46 21 -54 12 -12 14 -39 10 -140 -5 -123 -6 -128
-43 -196 -21 -38 -44 -74 -51 -78 -8 -4 -14 -14 -14 -21 0 -8 -12 -17 -27 -21
-15 -3 -32 -13 -38 -22 -9 -12 -35 -15 -126 -15 l-114 0 -92 46 c-51 25 -93
50 -93 56 0 5 -4 10 -9 10 -14 0 -61 45 -61 59 0 6 -4 11 -9 11 -30 0 -79 135
-80 220 -1 35 26 120 38 120 4 0 17 10 30 21 17 16 40 23 89 27 37 2 76 11 87
18 11 8 28 14 38 14 9 0 20 7 23 15 4 8 12 15 18 15 7 0 38 13 70 29 31 17 65
32 74 34 44 10 117 5 146 -11z"/>
    <path d="M3569 5209 c-48 -50 -50 -77 -6 -106 45 -31 136 -33 144 -3 3 11 9
20 14 20 15 0 10 36 -8 69 -17 29 -66 61 -93 61 -6 0 -29 -18 -51 -41z"/>
    <path d="M2835 5568 c-8 -20 13 -71 25 -63 15 9 12 51 -5 65 -12 10 -16 9 -20
-2z"/>
    <path d="M2528 5518 c-1 -13 0 -43 1 -66 3 -52 -27 -92 -68 -92 -14 0 -48 -8
-76 -19 -87 -33 -119 -43 -162 -52 -72 -14 -146 -39 -213 -71 -36 -17 -76 -36
-88 -42 -38 -17 -132 -117 -132 -140 0 -18 41 -54 72 -61 32 -8 38 -27 38
-123 0 -52 4 -78 15 -88 8 -9 15 -28 15 -43 0 -15 7 -36 15 -47 8 -10 15 -26
15 -35 0 -34 126 -183 176 -209 16 -8 33 -21 37 -27 4 -7 14 -13 21 -13 7 0
24 -8 37 -18 13 -10 49 -26 80 -36 50 -16 64 -17 120 -6 35 7 77 14 94 17 46
9 175 105 175 132 0 6 5 11 10 11 14 0 47 35 54 58 4 11 13 26 21 32 8 7 15
29 15 49 0 21 7 46 15 57 21 28 21 226 0 248 -8 8 -15 28 -15 45 0 20 -5 31
-14 31 -8 0 -17 10 -20 23 -7 25 -88 117 -103 117 -5 0 -18 9 -27 19 -16 17
-17 32 -11 117 5 61 13 103 21 112 8 7 14 27 14 43 0 66 -127 140 -132 77z
m-13 -412 c11 -7 31 -17 44 -21 13 -4 37 -20 52 -36 16 -16 33 -29 38 -29 6 0
14 -12 17 -27 4 -16 13 -35 20 -43 19 -23 34 -131 23 -176 -4 -22 -9 -52 -9
-67 0 -16 -9 -40 -20 -54 -11 -14 -20 -32 -20 -40 0 -27 -60 -92 -118 -126
-81 -49 -147 -64 -208 -47 -49 13 -116 47 -122 62 -2 5 -19 15 -38 23 -19 8
-34 19 -34 24 0 6 -8 19 -17 29 -24 25 -40 50 -58 90 -9 17 -20 32 -25 32 -6
0 -10 21 -10 48 0 30 -7 56 -19 71 -15 20 -18 36 -13 85 3 36 11 64 18 69 8 4
14 17 14 27 0 13 9 22 28 26 15 4 32 10 37 14 6 5 51 19 102 33 50 14 100 30
110 36 27 16 184 14 208 -3z"/>
    <path d="M2468 4973 c-10 -2 -18 -11 -18 -19 0 -8 -6 -17 -14 -20 -16 -6 -29
-87 -20 -130 4 -24 13 -32 44 -41 56 -18 85 -1 110 65 11 29 20 58 20 63 0 14
-32 72 -45 81 -11 8 -49 9 -77 1z"/>
    <path d="M3485 4444 c-11 -2 -45 -9 -75 -15 -62 -13 -201 -76 -220 -101 -3 -3
-31 -26 -62 -50 -69 -54 -145 -145 -180 -218 -7 -14 -18 -31 -25 -38 -7 -7
-13 -20 -13 -29 0 -14 -61 -152 -92 -208 -26 -46 -18 -349 13 -485 12 -52 55
-110 83 -110 5 0 18 -7 27 -16 42 -38 235 -6 253 41 3 8 18 15 33 15 16 0 37
6 48 14 11 7 34 17 52 20 17 4 34 14 37 22 3 8 16 14 28 14 13 0 37 9 53 20
19 13 47 20 76 20 32 0 49 5 53 15 3 8 14 15 25 15 11 0 26 6 33 13 7 8 42 16
78 20 35 3 66 10 68 16 2 6 19 13 39 17 19 4 37 12 39 19 3 7 33 16 67 20 34
3 65 11 68 17 3 5 26 12 50 15 24 3 49 11 54 17 6 7 18 15 27 19 29 11 49 53
49 104 0 79 -16 186 -34 218 -9 17 -17 36 -17 43 0 6 -4 12 -10 12 -5 0 -10 8
-10 19 0 10 -8 29 -18 42 -11 13 -22 36 -26 52 -3 15 -11 27 -16 27 -6 0 -10
6 -10 13 0 7 -8 20 -17 29 -10 9 -27 27 -38 40 -11 13 -28 27 -37 31 -10 3
-18 12 -18 20 0 7 -19 28 -41 47 -23 19 -47 40 -55 47 -7 7 -15 13 -19 13 -3
0 -21 11 -39 25 -18 14 -36 25 -41 25 -4 0 -41 16 -81 35 -40 19 -77 35 -82
35 -5 0 -15 7 -22 15 -13 15 -18 16 -55 9z"/>
  </g>
</svg>
